<svg version="1.1" id="Layer_1" xmlns="http://www.w3.org/2000/svg" xmlns:xlink="http://www.w3.org/1999/xlink" x="0px" y="0px"
	 width="100%" viewBox="0 0 991 421" enable-background="new 0 0 991 421" xml:space="preserve">
<path fill="#000000" opacity="1.000000" stroke="none" 
	d="
M603.000000,422.000000 
	C402.000000,422.000000 201.500000,422.000000 1.000000,422.000000 
	C1.000000,281.666656 1.000000,141.333328 1.000000,1.000000 
	C331.333344,1.000000 661.666687,1.000000 992.000000,1.000000 
	C992.000000,141.333328 992.000000,281.666656 992.000000,422.000000 
	C862.500000,422.000000 733.000000,422.000000 603.000000,422.000000 
M871.474854,306.973907 
	C862.842224,286.225250 854.209595,265.476593 845.564148,244.697037 
	C847.468933,243.838470 848.321716,243.251587 849.255066,243.062775 
	C877.470581,237.354782 905.655457,231.480011 933.949402,226.189163 
	C939.449829,225.160614 939.029175,222.147079 938.994324,218.474045 
	C938.953857,214.208282 936.061096,213.600922 932.830322,214.040924 
	C921.348328,215.604752 909.791321,216.846008 898.443787,219.114960 
	C881.570740,222.488770 864.853333,226.639603 848.065735,230.442215 
	C845.912598,230.929932 843.735718,231.313049 840.281921,232.001282 
	C854.253540,210.434204 867.370422,190.294464 880.355957,170.070435 
	C883.870911,164.596054 887.106506,158.931534 890.247925,153.231674 
	C892.423950,149.283463 890.703186,146.332336 887.225769,144.041199 
	C884.472595,142.227249 881.854370,143.000977 880.358459,145.309906 
	C873.556458,155.809113 867.134705,166.553879 860.396362,177.095352 
	C852.618042,189.263794 844.651184,201.311707 836.480591,213.850189 
	C829.061584,185.063004 824.926392,156.405258 822.068115,127.556778 
	C820.705017,113.798782 819.773254,99.986992 819.068909,86.178001 
	C818.418701,73.431137 818.388062,60.653675 817.974792,47.893246 
	C817.788452,42.139717 817.066406,36.393612 817.092224,30.646410 
	C817.111389,26.386292 814.746643,23.969370 811.308228,24.271469 
	C807.697021,24.588749 804.701965,27.037292 804.971069,31.671015 
	C805.411621,39.257248 805.730286,46.852295 805.977783,54.447613 
	C806.371765,66.537895 806.614807,78.633148 807.020691,90.722977 
	C807.247864,97.491676 807.626892,104.256493 808.028320,111.017677 
	C808.281982,115.288940 808.580811,119.564453 809.073242,123.813255 
	C810.317383,134.545975 811.606384,145.274734 813.022339,155.985931 
	C814.219177,165.039734 815.763794,174.049164 816.860474,183.113831 
	C817.319275,186.905350 818.070618,191.184875 816.809998,194.535675 
	C815.017883,199.299240 811.744995,203.597702 808.659119,207.764893 
	C800.312683,219.036270 791.932007,230.293869 783.187561,241.255920 
	C773.849915,252.961517 764.231201,264.442444 751.182007,272.421570 
	C738.017639,280.471130 728.712952,279.225220 718.096680,269.620789 
	C709.596863,261.931061 707.458801,251.560318 706.054443,240.974426 
	C704.782715,231.388168 703.898132,221.747726 702.979004,212.118195 
	C701.590271,197.568130 699.805542,183.030075 699.144592,168.443604 
	C698.489014,153.976501 699.008667,139.455811 699.037598,124.958656 
	C699.040161,123.690842 699.225952,122.423378 699.353210,120.820656 
	C704.118835,121.889954 706.245056,119.275063 706.914612,115.480659 
	C707.597534,111.610176 707.888733,107.634529 707.953552,103.698364 
	C708.099487,94.848434 708.403992,85.971169 707.896606,77.147995 
	C707.263611,66.138313 703.865234,55.703094 698.768677,45.981861 
	C698.004944,44.525112 694.252808,44.143906 691.905884,44.201195 
	C690.595581,44.233181 688.651001,45.965542 688.194580,47.333023 
	C687.332886,49.914360 687.107117,52.778671 687.024902,55.537525 
	C686.610291,69.460594 686.013184,83.388756 686.065735,97.312920 
	C686.163574,123.238731 686.613525,149.163864 687.023499,175.087585 
	C687.225281,187.849976 687.663757,200.608673 687.999634,213.368912 
	C688.017029,214.029617 687.897522,214.767487 688.145752,215.336914 
	C690.148010,219.930023 688.806702,223.743454 685.967163,227.594345 
	C674.874329,242.637756 662.509705,256.539734 647.960205,268.254211 
	C642.747681,272.451050 636.364014,275.358582 630.179810,278.098389 
	C627.856323,279.127808 624.391479,278.601929 621.780884,277.755310 
	C615.871094,275.838715 614.652222,270.262360 612.917603,265.106262 
	C610.481567,257.865540 605.673889,256.765045 600.446899,262.075348 
	C599.535400,263.001312 598.804993,264.102722 597.950378,265.087921 
	C590.304810,273.901855 582.794128,282.839203 574.933716,291.457520 
	C571.338318,295.399597 563.888123,296.254822 559.842896,293.942169 
	C555.582581,291.506531 551.082458,284.500702 552.129822,280.993530 
	C556.758789,265.493317 566.825073,254.647736 581.456970,248.055939 
	C590.876526,243.812347 600.516602,244.574112 610.127625,247.581421 
	C614.074768,248.816467 616.714294,246.932266 617.694885,243.446442 
	C618.600769,240.225677 618.498047,237.260986 613.918213,235.801102 
	C600.354431,231.477524 587.393127,232.997696 574.288269,237.833527 
	C554.181641,245.253082 538.666138,265.595398 539.954163,288.793762 
	C540.595825,300.351288 545.682434,308.498383 555.304504,310.600098 
	C563.273682,312.340729 571.417358,311.074554 577.595703,305.624146 
	C584.808838,299.260895 591.076050,291.820648 597.698425,284.795685 
	C599.853149,282.509979 601.834534,280.060913 603.565430,278.066498 
	C606.633362,281.743134 608.772827,285.444733 611.908630,287.844025 
	C620.135864,294.138855 628.952026,292.741669 637.760071,288.681488 
	C649.976868,283.049896 660.628052,275.255493 669.890076,265.569855 
	C677.162964,257.964508 684.251465,250.182816 691.671631,242.211075 
	C692.164429,244.135895 692.565430,245.800812 693.017273,247.451859 
	C696.854736,261.473053 702.087769,274.703461 714.312439,283.781952 
	C722.852051,290.123779 732.225708,292.156860 742.867493,290.214386 
	C755.418335,287.923492 764.830505,280.401337 773.854492,272.502930 
	C788.018066,260.105988 799.652344,245.393417 810.086548,229.745468 
	C814.194885,223.584305 818.324097,217.437119 822.432373,211.300552 
	C825.910645,220.896332 829.364807,230.193176 821.172363,239.218903 
	C819.933716,240.583542 820.266052,245.008789 821.584106,246.598923 
	C822.898621,248.184708 826.532288,248.831375 828.851562,248.375580 
	C832.525513,247.653564 833.886047,248.273514 835.200684,252.004028 
	C839.131531,263.158539 843.527344,274.160095 848.064270,285.087372 
	C853.297852,297.692566 858.771973,310.201263 864.342712,322.661957 
	C867.665039,330.093140 871.262146,337.408325 874.949402,344.667053 
	C877.228271,349.153168 881.436157,350.294647 885.646851,347.706970 
	C889.173523,345.539673 888.242676,342.534363 886.809631,339.487427 
	C881.817932,328.873932 876.878845,318.235626 871.474854,306.973907 
M121.860489,175.445312 
	C114.258720,174.982437 106.462296,173.258347 99.107178,174.393555 
	C90.929634,175.655685 82.470787,178.358109 75.362434,182.527298 
	C64.438652,188.934311 58.430866,199.898666 53.934021,211.589630 
	C48.625103,225.391830 49.364281,239.799881 50.408550,253.982376 
	C51.286198,265.901917 56.259853,276.981445 63.893452,286.190338 
	C75.074722,299.678955 90.526932,306.211670 107.461243,307.795837 
	C127.111221,309.634033 146.560669,306.552582 165.685287,301.683594 
	C169.037125,300.830231 170.066711,299.105957 170.061386,295.708710 
	C169.970627,237.887817 170.004395,180.066742 169.981674,122.245712 
	C169.979691,117.171959 168.626770,116.246391 163.562210,117.196159 
	C154.780319,118.843048 146.014740,120.639801 137.172638,121.874657 
	C133.079086,122.446350 131.914200,124.223099 131.947952,128.059998 
	C132.078430,142.889023 132.006927,157.719894 131.986694,172.550049 
	C131.984283,174.313568 131.834457,176.076889 131.723618,178.475449 
	C128.268387,177.448196 125.441246,176.607681 121.860489,175.445312 
M305.878906,206.676086 
	C301.244843,197.794861 295.534302,189.840927 286.944672,184.287079 
	C271.478455,174.286987 254.673370,170.464645 236.587219,174.188187 
	C217.358093,178.147034 202.487350,188.518250 193.421860,206.234573 
	C185.049332,222.596664 184.244751,240.057770 187.456146,257.749878 
	C189.859161,270.988373 195.768768,282.939331 205.764664,291.886780 
	C223.905029,308.124420 245.591293,312.103363 268.619171,305.664093 
	C286.709869,300.605347 300.691589,289.513000 307.286011,271.213257 
	C309.778687,264.296051 311.227417,256.877625 312.191559,249.561096 
	C314.107239,235.023575 312.704285,220.784515 305.878906,206.676086 
M349.548676,187.008377 
	C344.447479,192.815613 338.173340,197.966248 334.480988,204.562134 
	C325.892517,219.904205 323.234344,236.706375 326.136749,254.213486 
	C329.196777,272.671326 336.273468,288.844208 353.403503,298.420410 
	C377.236450,311.743866 402.084442,310.824005 427.126709,302.231842 
	C428.482849,301.766602 430.013947,298.874207 429.818024,297.318939 
	C428.848724,289.624786 427.202972,282.018799 426.049103,274.343658 
	C425.465973,270.464752 423.800537,269.976624 420.231628,270.956757 
	C409.832642,273.812500 399.406067,275.832214 388.386902,274.124603 
	C376.208221,272.237305 367.895905,265.621796 365.466309,253.282852 
	C364.418976,247.964005 364.847717,242.344589 364.706909,236.859116 
	C364.339294,222.537781 373.552979,209.211624 386.474121,207.571869 
	C396.550385,206.293137 406.382721,206.987503 416.028107,209.948914 
	C419.142181,210.904984 420.604370,210.287476 421.430267,207.106796 
	C423.392426,199.550217 425.592865,192.055756 427.663086,184.526840 
	C428.373444,181.943481 427.773163,179.978729 424.981323,178.997604 
	C398.833923,169.808853 373.612335,169.709091 349.548676,187.008377 
M581.958313,165.539566 
	C564.713989,171.341858 547.449341,177.084656 530.236084,182.977600 
	C523.917419,185.140762 517.720398,187.659119 511.014862,190.186203 
	C511.014862,183.521790 510.732727,177.682297 511.070831,171.878952 
	C511.894043,157.749313 513.128540,143.643524 513.940308,129.513367 
	C514.274231,123.700417 512.416382,121.481171 508.027222,121.071236 
	C504.632324,120.754173 501.327271,124.384979 501.024658,129.096603 
	C500.284882,140.614151 499.576813,152.135193 499.025940,163.662949 
	C498.559814,173.417130 498.411499,183.186859 497.902863,192.938232 
	C497.835876,194.222733 496.757416,196.115219 495.658234,196.587433 
	C474.328003,205.751038 452.932434,214.762909 431.531067,223.760223 
	C426.713776,225.785431 425.022766,228.450012 426.513672,232.088745 
	C428.075897,235.901459 431.664734,237.348389 435.951233,235.542313 
	C443.736053,232.262268 451.402985,228.702560 459.185547,225.417038 
	C471.564484,220.191086 483.997986,215.094391 497.485779,209.495804 
	C496.951721,219.089676 496.079407,227.790314 496.073425,236.491531 
	C496.064301,249.748505 496.441376,263.015594 497.043823,276.260681 
	C497.830414,293.554443 498.921692,310.835724 500.035583,328.112488 
	C500.511169,335.488525 501.243011,342.854828 502.094421,350.198181 
	C503.280762,360.430298 504.674652,370.638550 506.006226,380.853546 
	C507.019348,388.625702 507.896240,396.422272 509.195099,404.147247 
	C509.734467,407.355103 512.224609,409.474701 515.608765,408.877106 
	C518.557739,408.356323 521.269165,406.912201 521.020996,403.008057 
	C520.873352,400.684143 521.190369,398.314453 520.888672,396.019257 
	C519.333862,384.192657 517.449524,372.406555 516.062988,360.561523 
	C514.784485,349.639862 513.832764,338.673248 513.018188,327.705536 
	C511.566833,308.165253 509.670502,288.625610 509.183075,269.055237 
	C508.687317,249.152100 509.807617,229.212738 509.883057,209.287949 
	C509.898224,205.274750 510.835114,203.070618 514.902832,202.560257 
	C515.852966,202.441040 516.786804,202.047485 517.684631,201.675232 
	C554.062927,186.592819 591.592468,175.023499 629.623901,164.987961 
	C634.496826,163.702118 636.973816,160.355743 635.975037,156.246887 
	C635.103577,152.661789 631.693542,151.276474 626.728394,152.665375 
	C612.028259,156.777420 597.344482,160.947906 581.958313,165.539566 
z"/>
<path fill="#3841EC" opacity="1.000000" stroke="none" 
	d="
M871.697266,307.290344 
	C876.878845,318.235626 881.817932,328.873932 886.809631,339.487427 
	C888.242676,342.534363 889.173523,345.539673 885.646851,347.706970 
	C881.436157,350.294647 877.228271,349.153168 874.949402,344.667053 
	C871.262146,337.408325 867.665039,330.093140 864.342712,322.661957 
	C858.771973,310.201263 853.297852,297.692566 848.064270,285.087372 
	C843.527344,274.160095 839.131531,263.158539 835.200684,252.004028 
	C833.886047,248.273514 832.525513,247.653564 828.851562,248.375580 
	C826.532288,248.831375 822.898621,248.184708 821.584106,246.598923 
	C820.266052,245.008789 819.933716,240.583542 821.172363,239.218903 
	C829.364807,230.193176 825.910645,220.896332 822.432373,211.300552 
	C818.324097,217.437119 814.194885,223.584305 810.086548,229.745468 
	C799.652344,245.393417 788.018066,260.105988 773.854492,272.502930 
	C764.830505,280.401337 755.418335,287.923492 742.867493,290.214386 
	C732.225708,292.156860 722.852051,290.123779 714.312439,283.781952 
	C702.087769,274.703461 696.854736,261.473053 693.017273,247.451859 
	C692.565430,245.800812 692.164429,244.135895 691.671631,242.211075 
	C684.251465,250.182816 677.162964,257.964508 669.890076,265.569855 
	C660.628052,275.255493 649.976868,283.049896 637.760071,288.681488 
	C628.952026,292.741669 620.135864,294.138855 611.908630,287.844025 
	C608.772827,285.444733 606.633362,281.743134 603.565430,278.066498 
	C601.834534,280.060913 599.853149,282.509979 597.698425,284.795685 
	C591.076050,291.820648 584.808838,299.260895 577.595703,305.624146 
	C571.417358,311.074554 563.273682,312.340729 555.304504,310.600098 
	C545.682434,308.498383 540.595825,300.351288 539.954163,288.793762 
	C538.666138,265.595398 554.181641,245.253082 574.288269,237.833527 
	C587.393127,232.997696 600.354431,231.477524 613.918213,235.801102 
	C618.498047,237.260986 618.600769,240.225677 617.694885,243.446442 
	C616.714294,246.932266 614.074768,248.816467 610.127625,247.581421 
	C600.516602,244.574112 590.876526,243.812347 581.456970,248.055939 
	C566.825073,254.647736 556.758789,265.493317 552.129822,280.993530 
	C551.082458,284.500702 555.582581,291.506531 559.842896,293.942169 
	C563.888123,296.254822 571.338318,295.399597 574.933716,291.457520 
	C582.794128,282.839203 590.304810,273.901855 597.950378,265.087921 
	C598.804993,264.102722 599.535400,263.001312 600.446899,262.075348 
	C605.673889,256.765045 610.481567,257.865540 612.917603,265.106262 
	C614.652222,270.262360 615.871094,275.838715 621.780884,277.755310 
	C624.391479,278.601929 627.856323,279.127808 630.179810,278.098389 
	C636.364014,275.358582 642.747681,272.451050 647.960205,268.254211 
	C662.509705,256.539734 674.874329,242.637756 685.967163,227.594345 
	C688.806702,223.743454 690.148010,219.930023 688.145752,215.336914 
	C687.897522,214.767487 688.017029,214.029617 687.999634,213.368912 
	C687.663757,200.608673 687.225281,187.849976 687.023499,175.087585 
	C686.613525,149.163864 686.163574,123.238731 686.065735,97.312920 
	C686.013184,83.388756 686.610291,69.460594 687.024902,55.537525 
	C687.107117,52.778671 687.332886,49.914360 688.194580,47.333023 
	C688.651001,45.965542 690.595581,44.233181 691.905884,44.201195 
	C694.252808,44.143906 698.004944,44.525112 698.768677,45.981861 
	C703.865234,55.703094 707.263611,66.138313 707.896606,77.147995 
	C708.403992,85.971169 708.099487,94.848434 707.953552,103.698364 
	C707.888733,107.634529 707.597534,111.610176 706.914612,115.480659 
	C706.245056,119.275063 704.118835,121.889954 699.353210,120.820656 
	C699.225952,122.423378 699.040161,123.690842 699.037598,124.958656 
	C699.008667,139.455811 698.489014,153.976501 699.144592,168.443604 
	C699.805542,183.030075 701.590271,197.568130 702.979004,212.118195 
	C703.898132,221.747726 704.782715,231.388168 706.054443,240.974426 
	C707.458801,251.560318 709.596863,261.931061 718.096680,269.620789 
	C728.712952,279.225220 738.017639,280.471130 751.182007,272.421570 
	C764.231201,264.442444 773.849915,252.961517 783.187561,241.255920 
	C791.932007,230.293869 800.312683,219.036270 808.659119,207.764893 
	C811.744995,203.597702 815.017883,199.299240 816.809998,194.535675 
	C818.070618,191.184875 817.319275,186.905350 816.860474,183.113831 
	C815.763794,174.049164 814.219177,165.039734 813.022339,155.985931 
	C811.606384,145.274734 810.317383,134.545975 809.073242,123.813255 
	C808.580811,119.564453 808.281982,115.288940 808.028320,111.017677 
	C807.626892,104.256493 807.247864,97.491676 807.020691,90.722977 
	C806.614807,78.633148 806.371765,66.537895 805.977783,54.447613 
	C805.730286,46.852295 805.411621,39.257248 804.971069,31.671015 
	C804.701965,27.037292 807.697021,24.588749 811.308228,24.271469 
	C814.746643,23.969370 817.111389,26.386292 817.092224,30.646410 
	C817.066406,36.393612 817.788452,42.139717 817.974792,47.893246 
	C818.388062,60.653675 818.418701,73.431137 819.068909,86.178001 
	C819.773254,99.986992 820.705017,113.798782 822.068115,127.556778 
	C824.926392,156.405258 829.061584,185.063004 836.480591,213.850189 
	C844.651184,201.311707 852.618042,189.263794 860.396362,177.095352 
	C867.134705,166.553879 873.556458,155.809113 880.358459,145.309906 
	C881.854370,143.000977 884.472595,142.227249 887.225769,144.041199 
	C890.703186,146.332336 892.423950,149.283463 890.247925,153.231674 
	C887.106506,158.931534 883.870911,164.596054 880.355957,170.070435 
	C867.370422,190.294464 854.253540,210.434204 840.281921,232.001282 
	C843.735718,231.313049 845.912598,230.929932 848.065735,230.442215 
	C864.853333,226.639603 881.570740,222.488770 898.443787,219.114960 
	C909.791321,216.846008 921.348328,215.604752 932.830322,214.040924 
	C936.061096,213.600922 938.953857,214.208282 938.994324,218.474045 
	C939.029175,222.147079 939.449829,225.160614 933.949402,226.189163 
	C905.655457,231.480011 877.470581,237.354782 849.255066,243.062775 
	C848.321716,243.251587 847.468933,243.838470 845.564148,244.697037 
	C854.209595,265.476593 862.842224,286.225250 871.697266,307.290344 
z"/>
<path fill="#002955" opacity="1.000000" stroke="none" 
	d="
M122.237305,175.606232 
	C125.441246,176.607681 128.268387,177.448196 131.723618,178.475449 
	C131.834457,176.076889 131.984283,174.313568 131.986694,172.550049 
	C132.006927,157.719894 132.078430,142.889023 131.947952,128.059998 
	C131.914200,124.223099 133.079086,122.446350 137.172638,121.874657 
	C146.014740,120.639801 154.780319,118.843048 163.562210,117.196159 
	C168.626770,116.246391 169.979691,117.171959 169.981674,122.245712 
	C170.004395,180.066742 169.970627,237.887817 170.061386,295.708710 
	C170.066711,299.105957 169.037125,300.830231 165.685287,301.683594 
	C146.560669,306.552582 127.111221,309.634033 107.461243,307.795837 
	C90.526932,306.211670 75.074722,299.678955 63.893452,286.190338 
	C56.259853,276.981445 51.286198,265.901917 50.408550,253.982376 
	C49.364281,239.799881 48.625103,225.391830 53.934021,211.589630 
	C58.430866,199.898666 64.438652,188.934311 75.362434,182.527298 
	C82.470787,178.358109 90.929634,175.655685 99.107178,174.393555 
	C106.462296,173.258347 114.258720,174.982437 122.237305,175.606232 
M123.133392,274.900024 
	C131.997406,272.903046 131.997574,272.903046 131.997665,263.732513 
	C131.997818,249.908997 132.118912,236.084122 131.962067,222.262390 
	C131.818481,209.608856 134.694946,210.112930 119.827805,207.473755 
	C107.794388,205.337585 95.366486,208.341812 91.136215,222.406189 
	C88.258202,231.974716 88.173637,241.461349 89.952744,250.927124 
	C91.870636,261.131317 96.576080,269.962341 107.529427,273.042603 
	C112.234070,274.365662 117.312866,274.358246 123.133392,274.900024 
z"/>
<path fill="#002955" opacity="1.000000" stroke="none" 
	d="
M306.019653,207.023315 
	C312.704285,220.784515 314.107239,235.023575 312.191559,249.561096 
	C311.227417,256.877625 309.778687,264.296051 307.286011,271.213257 
	C300.691589,289.513000 286.709869,300.605347 268.619171,305.664093 
	C245.591293,312.103363 223.905029,308.124420 205.764664,291.886780 
	C195.768768,282.939331 189.859161,270.988373 187.456146,257.749878 
	C184.244751,240.057770 185.049332,222.596664 193.421860,206.234573 
	C202.487350,188.518250 217.358093,178.147034 236.587219,174.188187 
	C254.673370,170.464645 271.478455,174.286987 286.944672,184.287079 
	C295.534302,189.840927 301.244843,197.794861 306.019653,207.023315 
M226.752914,256.584900 
	C228.255966,259.525391 229.433014,262.695740 231.316895,265.367706 
	C240.922424,278.991425 262.716187,277.309967 269.582001,262.432739 
	C275.561737,249.475479 275.936493,236.073608 271.368652,222.710587 
	C268.610413,214.641464 263.512115,208.251480 254.291077,207.164001 
	C244.508652,206.010361 235.845688,207.717545 230.185379,217.207504 
	C222.800522,229.588760 224.267807,242.639603 226.752914,256.584900 
z"/>
<path fill="#002955" opacity="1.000000" stroke="none" 
	d="
M349.820068,186.775848 
	C373.612335,169.709091 398.833923,169.808853 424.981323,178.997604 
	C427.773163,179.978729 428.373444,181.943481 427.663086,184.526840 
	C425.592865,192.055756 423.392426,199.550217 421.430267,207.106796 
	C420.604370,210.287476 419.142181,210.904984 416.028107,209.948914 
	C406.382721,206.987503 396.550385,206.293137 386.474121,207.571869 
	C373.552979,209.211624 364.339294,222.537781 364.706909,236.859116 
	C364.847717,242.344589 364.418976,247.964005 365.466309,253.282852 
	C367.895905,265.621796 376.208221,272.237305 388.386902,274.124603 
	C399.406067,275.832214 409.832642,273.812500 420.231628,270.956757 
	C423.800537,269.976624 425.465973,270.464752 426.049103,274.343658 
	C427.202972,282.018799 428.848724,289.624786 429.818024,297.318939 
	C430.013947,298.874207 428.482849,301.766602 427.126709,302.231842 
	C402.084442,310.824005 377.236450,311.743866 353.403503,298.420410 
	C336.273468,288.844208 329.196777,272.671326 326.136749,254.213486 
	C323.234344,236.706375 325.892517,219.904205 334.480988,204.562134 
	C338.173340,197.966248 344.447479,192.815613 349.820068,186.775848 
z"/>
<path fill="#3841EC" opacity="1.000000" stroke="none" 
	d="
M582.306274,165.317551 
	C597.344482,160.947906 612.028259,156.777420 626.728394,152.665375 
	C631.693542,151.276474 635.103577,152.661789 635.975037,156.246887 
	C636.973816,160.355743 634.496826,163.702118 629.623901,164.987961 
	C591.592468,175.023499 554.062927,186.592819 517.684631,201.675232 
	C516.786804,202.047485 515.852966,202.441040 514.902832,202.560257 
	C510.835114,203.070618 509.898224,205.274750 509.883057,209.287949 
	C509.807617,229.212738 508.687317,249.152100 509.183075,269.055237 
	C509.670502,288.625610 511.566833,308.165253 513.018188,327.705536 
	C513.832764,338.673248 514.784485,349.639862 516.062988,360.561523 
	C517.449524,372.406555 519.333862,384.192657 520.888672,396.019257 
	C521.190369,398.314453 520.873352,400.684143 521.020996,403.008057 
	C521.269165,406.912201 518.557739,408.356323 515.608765,408.877106 
	C512.224609,409.474701 509.734467,407.355103 509.195099,404.147247 
	C507.896240,396.422272 507.019348,388.625702 506.006226,380.853546 
	C504.674652,370.638550 503.280762,360.430298 502.094421,350.198181 
	C501.243011,342.854828 500.511169,335.488525 500.035583,328.112488 
	C498.921692,310.835724 497.830414,293.554443 497.043823,276.260681 
	C496.441376,263.015594 496.064301,249.748505 496.073425,236.491531 
	C496.079407,227.790314 496.951721,219.089676 497.485779,209.495804 
	C483.997986,215.094391 471.564484,220.191086 459.185547,225.417038 
	C451.402985,228.702560 443.736053,232.262268 435.951233,235.542313 
	C431.664734,237.348389 428.075897,235.901459 426.513672,232.088745 
	C425.022766,228.450012 426.713776,225.785431 431.531067,223.760223 
	C452.932434,214.762909 474.328003,205.751038 495.658234,196.587433 
	C496.757416,196.115219 497.835876,194.222733 497.902863,192.938232 
	C498.411499,183.186859 498.559814,173.417130 499.025940,163.662949 
	C499.576813,152.135193 500.284882,140.614151 501.024658,129.096603 
	C501.327271,124.384979 504.632324,120.754173 508.027222,121.071236 
	C512.416382,121.481171 514.274231,123.700417 513.940308,129.513367 
	C513.128540,143.643524 511.894043,157.749313 511.070831,171.878952 
	C510.732727,177.682297 511.014862,183.521790 511.014862,190.186203 
	C517.720398,187.659119 523.917419,185.140762 530.236084,182.977600 
	C547.449341,177.084656 564.713989,171.341858 582.306274,165.317551 
z"/>
<path fill="#000000" opacity="1.000000" stroke="none" 
	d="
M122.677536,274.927673 
	C117.312866,274.358246 112.234070,274.365662 107.529427,273.042603 
	C96.576080,269.962341 91.870636,261.131317 89.952744,250.927124 
	C88.173637,241.461349 88.258202,231.974716 91.136215,222.406189 
	C95.366486,208.341812 107.794388,205.337585 119.827805,207.473755 
	C134.694946,210.112930 131.818481,209.608856 131.962067,222.262390 
	C132.118912,236.084122 131.997818,249.908997 131.997665,263.732513 
	C131.997574,272.903046 131.997406,272.903046 122.677536,274.927673 
z"/>
<path fill="#000000" opacity="1.000000" stroke="none" 
	d="
M226.588470,256.216095 
	C224.267807,242.639603 222.800522,229.588760 230.185379,217.207504 
	C235.845688,207.717545 244.508652,206.010361 254.291077,207.164001 
	C263.512115,208.251480 268.610413,214.641464 271.368652,222.710587 
	C275.936493,236.073608 275.561737,249.475479 269.582001,262.432739 
	C262.716187,277.309967 240.922424,278.991425 231.316895,265.367706 
	C229.433014,262.695740 228.255966,259.525391 226.588470,256.216095 
z"/>
</svg>